HIERARCHY
ROOT Hips
{
	OFFSET 0.000000 97.167313 0.000000
	CHANNELS 6 Xposition Yposition Zposition Xrotation Yrotation Zrotation
	JOINT Spine
	{
		OFFSET 0.000000 13.784798 0.064400
		CHANNELS 3 Xrotation Yrotation Zrotation
		JOINT Spine1
		{
			OFFSET 0.000000 12.037903 0.404700
			CHANNELS 3 Xrotation Yrotation Zrotation
			JOINT Spine2
			{
				OFFSET 0.000000 17.795601 0.420200
				CHANNELS 3 Xrotation Yrotation Zrotation
				JOINT Neck
				{
					OFFSET 0.000000 39.131302 11.954600
					CHANNELS 3 Xrotation Yrotation Zrotation
					JOINT Head
					{
						OFFSET 0.000000 14.456192 15.627699
						CHANNELS 3 Xrotation Yrotation Zrotation
						JOINT HeadTop_End
						{
							OFFSET 0.000000 15.703506 7.603401
							CHANNELS 3 Xrotation Yrotation Zrotation
							End Site
							{
								OFFSET 0.000000 17.447403 0.000000
							}
						}
					}
				}
				JOINT LeftShoulder
				{
					OFFSET 17.399500 24.608795 1.168800
					CHANNELS 3 Xrotation Yrotation Zrotation
					JOINT LeftArm
					{
						OFFSET 18.980635 5.765305 1.818600
						CHANNELS 3 Xrotation Yrotation Zrotation
						JOINT LeftForeArm
						{
							OFFSET 49.290169 0.000000 0.000000
							CHANNELS 3 Xrotation Yrotation Zrotation
							JOINT LeftHand
							{
								OFFSET 31.562012 0.000000 0.000000
								CHANNELS 3 Xrotation Yrotation Zrotation
								JOINT LeftHandThumb1
								{
									OFFSET 6.133995 -4.388519 7.076070
									CHANNELS 3 Xrotation Yrotation Zrotation
									JOINT LeftHandThumb2
									{
										OFFSET 6.037666 -3.485840 3.485847
										CHANNELS 3 Xrotation Yrotation Zrotation
										JOINT LeftHandThumb3
										{
											OFFSET 6.496506 -3.750763 3.750761
											CHANNELS 3 Xrotation Yrotation Zrotation
											JOINT LeftHandThumb4
											{
												OFFSET 5.616882 -3.242905 3.242910
												CHANNELS 3 Xrotation Yrotation Zrotation
												End Site
												{
													OFFSET -1.254608 7.132141 0.375429
												}
											}
										}
									}
								}
								JOINT LeftHandPinky1
								{
									OFFSET 18.920792 -0.453171 -11.426712
									CHANNELS 3 Xrotation Yrotation Zrotation
									JOINT LeftHandPinky2
									{
										OFFSET 4.919586 0.000000 0.000000
										CHANNELS 3 Xrotation Yrotation Zrotation
										JOINT LeftHandPinky3
										{
											OFFSET 5.233047 0.000000 0.000000
											CHANNELS 3 Xrotation Yrotation Zrotation
											JOINT LeftHandPinky4
											{
												OFFSET 5.571716 0.000000 0.000000
												CHANNELS 3 Xrotation Yrotation Zrotation
												End Site
												{
													OFFSET -3.459808 4.342407 -0.466164
												}
											}
										}
									}
								}
								JOINT LeftHandRing1
								{
									OFFSET 22.726120 -0.094986 -6.500475
									CHANNELS 3 Xrotation Yrotation Zrotation
									JOINT LeftHandRing2
									{
										OFFSET 6.408615 0.000000 0.000000
										CHANNELS 3 Xrotation Yrotation Zrotation
										JOINT LeftHandRing3
										{
											OFFSET 6.150223 0.000000 0.000000
											CHANNELS 3 Xrotation Yrotation Zrotation
											JOINT LeftHandRing4
											{
												OFFSET 6.145386 0.000000 0.000000
												CHANNELS 3 Xrotation Yrotation Zrotation
												End Site
												{
													OFFSET -3.671402 4.923981 -0.202372
												}
											}
										}
									}
								}
								JOINT LeftHandMiddle1
								{
									OFFSET 23.373947 0.000000 0.000001
									CHANNELS 3 Xrotation Yrotation Zrotation
									JOINT LeftHandMiddle2
									{
										OFFSET 6.996567 0.000000 0.000000
										CHANNELS 3 Xrotation Yrotation Zrotation
										JOINT LeftHandMiddle3
										{
											OFFSET 7.015945 0.000000 0.000000
											CHANNELS 3 Xrotation Yrotation Zrotation
											JOINT LeftHandMiddle4
											{
												OFFSET 7.721573 0.000000 0.000000
												CHANNELS 3 Xrotation Yrotation Zrotation
												End Site
												{
													OFFSET -4.651108 6.158463 0.251582
												}
											}
										}
									}
								}
								JOINT LeftHandIndex1
								{
									OFFSET 21.310577 -0.490082 6.209344
									CHANNELS 3 Xrotation Yrotation Zrotation
									JOINT LeftHandIndex2
									{
										OFFSET 7.536453 0.000000 0.000000
										CHANNELS 3 Xrotation Yrotation Zrotation
										JOINT LeftHandIndex3
										{
											OFFSET 7.512344 0.000000 0.000000
											CHANNELS 3 Xrotation Yrotation Zrotation
											JOINT LeftHandIndex4
											{
												OFFSET 10.212402 0.000000 0.000001
												CHANNELS 3 Xrotation Yrotation Zrotation
												End Site
												{
													OFFSET -5.180801 8.690506 1.388433
												}
											}
										}
									}
								}
							}
						}
					}
				}
				JOINT RightShoulder
				{
					OFFSET -17.399500 24.608795 1.168800
					CHANNELS 3 Xrotation Yrotation Zrotation
					JOINT RightArm
					{
						OFFSET -18.980635 5.765305 1.818600
						CHANNELS 3 Xrotation Yrotation Zrotation
						JOINT RightForeArm
						{
							OFFSET -49.290169 0.000000 0.000000
							CHANNELS 3 Xrotation Yrotation Zrotation
							JOINT RightHand
							{
								OFFSET -31.562012 0.000000 0.000000
								CHANNELS 3 Xrotation Yrotation Zrotation
								JOINT RightHandThumb1
								{
									OFFSET -6.133995 -4.388519 7.076070
									CHANNELS 3 Xrotation Yrotation Zrotation
									JOINT RightHandThumb2
									{
										OFFSET -6.037666 -3.485840 3.485847
										CHANNELS 3 Xrotation Yrotation Zrotation
										JOINT RightHandThumb3
										{
											OFFSET -6.496506 -3.750763 3.750761
											CHANNELS 3 Xrotation Yrotation Zrotation
											JOINT RightHandThumb4
											{
												OFFSET -5.616882 -3.242905 3.242910
												CHANNELS 3 Xrotation Yrotation Zrotation
												End Site
												{
													OFFSET 1.254608 7.132141 0.375429
												}
											}
										}
									}
								}
								JOINT RightHandIndex1
								{
									OFFSET -21.310577 -0.490082 6.209344
									CHANNELS 3 Xrotation Yrotation Zrotation
									JOINT RightHandIndex2
									{
										OFFSET -7.536453 0.000000 0.000000
										CHANNELS 3 Xrotation Yrotation Zrotation
										JOINT RightHandIndex3
										{
											OFFSET -7.512344 0.000000 0.000000
											CHANNELS 3 Xrotation Yrotation Zrotation
											JOINT RightHandIndex4
											{
												OFFSET -10.212402 0.000000 0.000001
												CHANNELS 3 Xrotation Yrotation Zrotation
												End Site
												{
													OFFSET 5.180801 8.690506 1.388433
												}
											}
										}
									}
								}
								JOINT RightHandMiddle1
								{
									OFFSET -23.373947 0.000000 0.000001
									CHANNELS 3 Xrotation Yrotation Zrotation
									JOINT RightHandMiddle2
									{
										OFFSET -6.996567 0.000000 0.000000
										CHANNELS 3 Xrotation Yrotation Zrotation
										JOINT RightHandMiddle3
										{
											OFFSET -7.015945 0.000000 0.000000
											CHANNELS 3 Xrotation Yrotation Zrotation
											JOINT RightHandMiddle4
											{
												OFFSET -7.721573 0.000000 0.000000
												CHANNELS 3 Xrotation Yrotation Zrotation
												End Site
												{
													OFFSET 4.651108 6.158463 0.251582
												}
											}
										}
									}
								}
								JOINT RightHandRing1
								{
									OFFSET -22.726120 -0.094986 -6.500475
									CHANNELS 3 Xrotation Yrotation Zrotation
									JOINT RightHandRing2
									{
										OFFSET -6.408615 0.000000 0.000000
										CHANNELS 3 Xrotation Yrotation Zrotation
										JOINT RightHandRing3
										{
											OFFSET -6.150223 0.000000 0.000000
											CHANNELS 3 Xrotation Yrotation Zrotation
											JOINT RightHandRing4
											{
												OFFSET -6.145386 0.000000 0.000000
												CHANNELS 3 Xrotation Yrotation Zrotation
												End Site
												{
													OFFSET 3.671402 4.923981 -0.202372
												}
											}
										}
									}
								}
								JOINT RightHandPinky1
								{
									OFFSET -18.920792 -0.453171 -11.426712
									CHANNELS 3 Xrotation Yrotation Zrotation
									JOINT RightHandPinky2
									{
										OFFSET -4.919586 0.000000 0.000000
										CHANNELS 3 Xrotation Yrotation Zrotation
										JOINT RightHandPinky3
										{
											OFFSET -5.233047 0.000000 0.000000
											CHANNELS 3 Xrotation Yrotation Zrotation
											JOINT RightHandPinky4
											{
												OFFSET -5.571716 0.000000 0.000000
												CHANNELS 3 Xrotation Yrotation Zrotation
												End Site
												{
													OFFSET 3.459808 4.342407 -0.466164
												}
											}
										}
									}
								}
							}
						}
					}
				}
			}
		}
	}
	JOINT LeftUpLeg
	{
		OFFSET 19.899099 -7.885101 -3.429500
		CHANNELS 3 Xrotation Yrotation Zrotation
		JOINT LeftLeg
		{
			OFFSET 1.745560 -36.997807 10.304700
			CHANNELS 3 Xrotation Yrotation Zrotation
			JOINT LeftFoot
			{
				OFFSET -1.745558 -29.803308 -13.615400
				CHANNELS 3 Xrotation Yrotation Zrotation
				JOINT LeftToeBase
				{
					OFFSET 1.181900 -18.539904 15.226099
					CHANNELS 3 Xrotation Yrotation Zrotation
					JOINT LeftToe_End
					{
						OFFSET -0.863701 1.402801 16.534700
						CHANNELS 3 Xrotation Yrotation Zrotation
						End Site
						{
							OFFSET 0.000000 16.616566 0.000000
						}
					}
				}
			}
		}
	}
	JOINT RightUpLeg
	{
		OFFSET -19.899099 -7.885101 -3.429500
		CHANNELS 3 Xrotation Yrotation Zrotation
		JOINT RightLeg
		{
			OFFSET -1.745560 -36.997807 10.304700
			CHANNELS 3 Xrotation Yrotation Zrotation
			JOINT RightFoot
			{
				OFFSET 1.745558 -29.803308 -13.615400
				CHANNELS 3 Xrotation Yrotation Zrotation
				JOINT RightToeBase
				{
					OFFSET -1.181900 -18.539904 15.226099
					CHANNELS 3 Xrotation Yrotation Zrotation
					JOINT RightToe_End
					{
						OFFSET 0.863701 1.402801 16.534700
						CHANNELS 3 Xrotation Yrotation Zrotation
						End Site
						{
							OFFSET 0.000000 16.616566 0.000000
						}
					}
				}
			}
		}
	}
}
MOTION
Frames: 4
Frame Time: 0.033333
-2.998039 91.305656 -0.739458 -0.905869 3.413470 2.409824 6.276213 -9.191430 -6.941532 7.461033 -2.631963 0.403890 6.542099 -1.376626 3.142974 -6.141780 -4.001557 -0.088778 -13.308854 -25.888200 5.261066 0.000000 0.000000 0.000000 2.018998 -1.086670 -7.935307 -2.262783 -12.890781 -61.189547 0.000003 -14.508263 -0.000022 -32.472813 4.738035 -5.756135 47.414880 -36.283375 34.305346 35.104782 32.678183 -35.587488 2.288125 28.957755 9.845656 0.000000 -0.000002 -0.000001 1.637802 7.102764 -71.644265 3.239626 5.237781 -63.452423 1.183704 3.532456 -37.041475 0.000000 -0.000000 -0.000000 -1.377185 7.588345 -84.881718 6.818031 5.770875 -99.528738 4.934250 5.779030 -80.969591 -0.000000 -0.000001 0.000003 7.316969 8.381307 -83.899844 6.942277 5.748755 -100.766785 1.301537 3.683112 -38.913992 0.000001 -0.000000 0.000009 0.070604 -6.390494 -82.681079 4.129934 5.593040 -72.864847 0.571791 2.526309 -25.502347 0.000001 0.000003 -0.000001 3.528873 -4.213169 0.706856 -11.763674 13.910552 78.843305 -0.000000 13.157139 0.000019 1.786583 -0.199692 0.406997 7.541750 23.490641 -3.084137 27.355761 -40.329760 10.209549 2.732751 -39.217444 -0.083906 0.000001 0.000001 0.000001 12.338879 2.289450 19.888065 0.724407 -2.496473 32.357905 0.019640 -0.427805 5.259077 -0.000001 -0.000001 -0.000002 1.665149 -7.436701 20.391294 1.605273 -3.519503 49.025442 0.566339 -2.227737 28.524364 0.000000 -0.000002 -0.000009 2.041124 -7.498771 25.426416 1.748906 -3.639033 51.325767 1.083795 -2.988602 39.858173 -0.000000 -0.000000 -0.000003 -10.217349 -17.480237 19.927890 1.642624 -3.551535 49.631187 1.823521 -3.697411 52.492084 -0.000002 -0.000002 0.000002 -10.791142 9.357483 8.251749 17.840507 -6.573701 0.113096 -6.145787 0.511090 -6.316705 -0.852244 0.000005 -0.000003 0.000000 -0.000001 0.000000 -5.565159 -9.710794 -8.813331 23.921655 -4.611498 -0.591070 -15.815464 -4.785745 7.113881 -1.422674 0.000003 0.000003 -0.000000 -0.000002 0.000000 
-3.136284 91.323975 -0.710944 -0.956319 3.456225 2.465608 6.309588 -9.303370 -6.931258 7.556039 -2.748564 0.467136 6.636663 -1.475515 3.246643 -6.175956 -4.091266 -0.104310 -13.510453 -25.974047 5.089247 -0.000000 0.000001 0.000000 2.002532 -1.140936 -7.922383 -2.475019 -13.051016 -61.311979 -0.000003 -14.290862 -0.000002 -32.740006 4.636615 -5.813687 47.414873 -36.283382 34.305342 35.120351 32.689183 -35.592409 2.288776 28.967601 9.850746 -0.000001 -0.000001 -0.000001 1.632870 7.100762 -71.636117 3.239742 5.237835 -63.453707 1.183132 3.531716 -37.032288 -0.000000 0.000001 -0.000005 -1.381336 7.585624 -84.861842 6.820875 5.770396 -99.557001 4.932371 5.778734 -80.950972 -0.000000 0.000001 0.000003 7.319220 8.380784 -83.921271 6.942211 5.748768 -100.766095 1.301261 3.682772 -38.909716 0.000000 -0.000001 0.000006 0.069774 -6.391475 -82.674310 4.122622 5.590789 -72.789893 0.571917 2.526574 -25.505183 -0.000001 0.000003 0.000001 3.560249 -4.216447 0.620074 -11.344980 13.542370 78.758030 0.000000 13.438036 0.000031 1.635879 -0.558416 0.393640 7.541751 23.490648 -3.084140 27.309999 -40.281939 10.163044 2.720358 -39.212300 -0.096909 -0.000001 -0.000001 0.000001 12.335905 2.301970 19.776500 0.718506 -2.487139 32.222131 0.018756 -0.418025 5.138622 -0.000001 -0.000001 -0.000001 1.657453 -7.434039 20.295695 1.601863 -3.516538 48.969878 0.563141 -2.221843 28.441895 0.000001 0.000002 -0.000008 2.042968 -7.506001 25.402689 1.748755 -3.638908 51.323387 1.083544 -2.988308 39.853382 -0.000000 -0.000000 -0.000005 -10.228232 -17.471665 19.876670 1.643129 -3.551956 49.639213 1.825282 -3.698759 52.519404 -0.000003 -0.000002 0.000002 -10.666661 9.336963 8.299044 17.651965 -6.602303 0.115058 -6.034276 0.513604 -6.436284 -0.854320 0.000006 0.000000 0.000000 0.000000 -0.000000 -5.460518 -9.742054 -8.743550 23.932203 -4.636811 -0.572640 -15.919079 -4.793873 6.971201 -1.406744 0.000003 -0.000001 -0.000000 -0.000002 -0.000000 
-3.264950 91.339195 -0.687817 -0.944541 3.479448 2.503205 6.318008 -9.386999 -6.906681 7.642787 -2.863450 0.527817 6.724192 -1.574630 3.343620 -6.178979 -4.183603 -0.105893 -13.574446 -26.057870 4.995696 0.000000 0.000002 0.000000 1.988166 -1.191580 -7.907456 -2.530024 -13.152444 -61.399241 0.000012 -14.334614 -0.000031 -33.041347 4.651736 -5.794521 47.414873 -36.283375 34.305349 35.126751 32.692499 -35.593844 2.289312 28.984147 9.859044 -0.000001 0.000001 -0.000002 1.629547 7.099532 -71.633316 3.239805 5.237864 -63.454384 1.183409 3.532082 -37.036790 0.000002 -0.000000 -0.000001 -1.383906 7.584471 -84.854022 6.818531 5.770790 -99.533676 4.931943 5.778664 -80.946676 -0.000000 0.000001 0.000003 7.321700 8.380216 -83.944801 6.942261 5.748759 -100.766594 1.300431 3.681743 -38.896729 -0.000000 0.000000 0.000009 0.070985 -6.393942 -82.653171 4.122595 5.590787 -72.789770 0.572057 2.526877 -25.508410 0.000000 0.000001 0.000001 3.594659 -4.241854 0.511182 -11.109696 13.251090 78.758816 0.000003 13.451171 0.000005 1.420596 -0.744596 0.356325 7.541750 23.490646 -3.084142 27.244195 -40.212326 10.095115 2.706268 -39.210791 -0.113404 -0.000002 0.000001 -0.000002 12.329583 2.315392 19.773340 0.713811 -2.479691 32.113927 0.018221 -0.412024 5.064534 -0.000001 0.000000 -0.000001 1.657586 -7.434565 20.294855 1.599284 -3.514305 48.927886 0.560826 -2.217562 28.382057 -0.000000 0.000000 -0.000008 2.043119 -7.503591 25.421698 1.751659 -3.641228 51.369163 1.084299 -2.989211 39.867865 -0.000001 -0.000000 -0.000003 -10.221368 -17.477742 19.912727 1.644829 -3.553411 49.666834 1.833997 -3.705410 52.654352 -0.000001 0.000002 0.000001 -10.604293 9.318763 8.348661 17.482631 -6.599982 0.115259 -5.953481 0.516285 -6.529570 -0.855599 -0.000007 -0.000000 -0.000000 0.000000 0.000000 -5.434281 -9.760198 -8.662078 23.933444 -4.658797 -0.565622 -15.992328 -4.797877 6.842206 -1.390644 -0.000017 -0.000001 0.000000 0.000000 -0.000000 
-3.381101 91.353371 -0.671416 -0.930854 3.502101 2.540233 6.324696 -9.451635 -6.875834 7.722323 -2.977836 0.586243 6.806003 -1.674578 3.435000 -6.155457 -4.279175 -0.098558 -13.523138 -26.132083 4.948465 0.000000 0.000001 -0.000000 1.975803 -1.235261 -7.895100 -2.611957 -13.277409 -61.482330 0.000006 -14.301816 -0.000011 -33.333137 4.668757 -5.771756 47.414876 -36.283375 34.305346 35.127892 32.691700 -35.593431 2.287338 28.989720 9.864373 -0.000002 0.000001 -0.000001 1.628263 7.099077 -71.632504 3.239799 5.237861 -63.454390 1.184177 3.533096 -37.049268 0.000002 -0.000000 -0.000001 -1.385739 7.583659 -84.848476 6.815056 5.771366 -99.499150 4.931751 5.778635 -80.944797 0.000000 -0.000001 0.000003 7.319769 8.380663 -83.926516 6.942442 5.748728 -100.768404 1.299525 3.680622 -38.882693 0.000001 -0.000001 0.000006 0.068815 -6.394175 -82.653963 4.123416 5.591034 -72.797953 0.572319 2.527414 -25.514404 -0.000003 0.000001 0.000001 3.630922 -4.287224 0.404255 -10.808652 12.961756 78.734015 0.000004 13.752880 -0.000009 1.223547 -1.064142 0.314906 7.541749 23.490644 -3.084137 27.189043 -40.154033 10.038180 2.689282 -39.202772 -0.129474 -0.000000 0.000001 0.000002 12.320705 2.337281 19.766709 0.710130 -2.473816 32.028721 0.017576 -0.404703 4.974310 -0.000000 0.000000 0.000001 1.659955 -7.435708 20.322514 1.597382 -3.512642 48.896792 0.560245 -2.216487 28.367114 0.000000 0.000001 -0.000002 2.037151 -7.482284 25.484281 1.754064 -3.643147 51.407023 1.085957 -2.991197 39.899684 0.000000 -0.000000 -0.000003 -10.201754 -17.500410 20.016815 1.646451 -3.554770 49.692871 1.842025 -3.711513 52.778501 0.000001 -0.000002 0.000004 -10.567343 9.299379 8.397492 17.321925 -6.628744 0.115807 -5.835123 0.518136 -6.654169 -0.855545 -0.000002 0.000000 0.000000 -0.000001 0.000000 -5.419732 -9.776910 -8.594304 23.936514 -4.676370 -0.556694 -16.053712 -4.802121 6.727350 -1.382256 -0.000001 0.000002 0.000000 -0.000001 0.000000 
